<svg width="28" height="28" viewBox="0 0 28 28" fill="none" xmlns="http://www.w3.org/2000/svg">
<g clip-path="url(#clip0_36_2386)">
<path d="M13.7725 0.052944C13.7217 0.0824752 13.5093 0.387194 13.3 0.730413C12.775 1.59229 12.7693 1.59273 12.064 0.850725C11.6051 0.367725 11.4942 0.27935 11.3465 0.280444C11.2503 0.280881 11.1289 0.313694 11.0764 0.353069C11.0239 0.392444 10.876 0.705694 10.7474 1.04935C10.4529 1.83685 10.4389 1.86201 10.2757 1.89372C10.1751 1.91254 9.98195 1.80469 9.5182 1.47176C9.17586 1.22566 8.84008 1.02441 8.77205 1.02441C8.48964 1.02441 8.41001 1.17885 8.27548 1.98691C8.10486 3.01438 8.11055 3.01088 7.18436 2.59022C6.81029 2.42047 6.45592 2.28179 6.3962 2.28179C6.33626 2.28179 6.22295 2.34588 6.14464 2.42441C6.00201 2.56704 6.0018 2.56769 6.04073 3.35322L6.07967 4.13963L5.93092 4.21926C5.79923 4.28969 5.70845 4.28116 5.12505 4.14313C4.3638 3.96332 4.2028 3.96813 4.0488 4.17594L3.93592 4.32754L4.0873 4.97591C4.17042 5.33247 4.25026 5.67591 4.26536 5.73869C4.28001 5.80147 4.25442 5.90188 4.20848 5.96182C4.13236 6.05982 4.05164 6.06901 3.34661 6.05807C2.15398 6.03926 2.08639 6.14163 2.5788 7.21744C2.73586 7.55869 2.86426 7.86932 2.86426 7.90651C2.86426 8.10294 2.70742 8.17426 2.03433 8.28429C1.65764 8.34554 1.33039 8.39585 1.30676 8.39585C1.28336 8.39585 1.2127 8.44726 1.14992 8.51004C0.944952 8.71479 1.00314 8.90729 1.46776 9.5631C2.04658 10.3801 2.0457 10.3834 1.08933 10.7489C0.00192039 11.165 -0.0201733 11.2674 0.807795 12.0527C1.57889 12.7842 1.57998 12.7735 0.706952 13.3223C0.0454517 13.7375 0.0353892 13.7476 0.0185454 13.9729C-0.0017983 14.247 0.00301416 14.2518 0.792483 14.7341C1.57342 15.211 1.57342 15.2254 0.807139 15.9504C-0.0171108 16.73 0.0082642 16.8438 1.09655 17.2543C2.04745 17.6131 2.04876 17.6175 1.46886 18.4343C1.1403 18.8974 1.03551 19.0905 1.03551 19.2334C1.03551 19.5009 1.17486 19.5692 2.00676 19.7089C2.70808 19.8271 2.86426 19.8964 2.86426 20.0898C2.86426 20.1296 2.73564 20.4424 2.57836 20.7848C2.08923 21.8501 2.14501 21.9387 3.30242 21.9387C4.38086 21.9387 4.3522 21.9058 4.11989 22.878C3.94489 23.6108 3.94205 23.7512 4.10064 23.9094C4.22183 24.031 4.45064 24.0174 5.16595 23.8462C5.71261 23.7158 5.80842 23.7068 5.93508 23.7744L6.07945 23.8518L6.04073 24.638C6.0018 25.424 6.00201 25.4244 6.14464 25.5673C6.22295 25.646 6.33801 25.7099 6.39948 25.7099C6.46117 25.7099 6.81576 25.5721 7.18786 25.4028C8.11098 24.9837 8.1053 24.9802 8.2757 26.0043C8.41067 26.8161 8.48942 26.9668 8.77751 26.9668C8.84904 26.9668 9.17783 26.7743 9.50814 26.5385C10.0887 26.1244 10.2392 26.0595 10.3939 26.1579C10.4337 26.1831 10.5885 26.5232 10.7377 26.9137C10.9571 27.4879 11.0374 27.6378 11.1597 27.6959C11.392 27.8075 11.536 27.7178 12.0824 27.1228C12.7421 26.404 12.7693 26.4075 13.3078 27.2803C13.9028 28.2441 14.0568 28.2419 14.6667 27.2608C15.1921 26.4156 15.186 26.416 15.8963 27.158C16.3681 27.6502 16.4685 27.729 16.6276 27.729C16.7291 27.729 16.8505 27.6907 16.8966 27.6441C16.9435 27.5975 17.0979 27.2534 17.2396 26.8793C17.3816 26.5053 17.5286 26.1793 17.5667 26.1553C17.717 26.0599 17.8725 26.1268 18.4522 26.5385C18.7934 26.7809 19.1145 26.9673 19.1909 26.9673C19.4744 26.9673 19.5768 26.766 19.6945 25.9753C19.7951 25.3011 19.8156 25.2363 19.9482 25.1692C20.0786 25.1031 20.1569 25.1254 20.7685 25.4032C21.1406 25.5717 21.4954 25.7099 21.5569 25.7099C21.6186 25.7099 21.7354 25.6438 21.8159 25.5629L21.9629 25.4163L21.9226 24.6621C21.8839 23.9424 21.8876 23.9035 22.0023 23.7996C22.1204 23.6928 22.1326 23.6933 22.793 23.8442C23.5928 24.0268 23.742 24.0317 23.8923 23.8814C24.039 23.7348 24.0375 23.7024 23.8367 22.8554C23.6114 21.9048 23.5812 21.9389 24.6636 21.9389C25.4016 21.9389 25.4839 21.9282 25.578 21.8245C25.735 21.651 25.6976 21.4522 25.382 20.7791C25.2225 20.44 25.0932 20.1316 25.0943 20.0933C25.0995 19.8933 25.2568 19.8249 25.9835 19.7068C26.4282 19.6348 26.7607 19.5514 26.8211 19.4968C27.023 19.3145 26.9489 19.0772 26.488 18.4308C25.91 17.6208 25.9126 17.6131 26.8377 17.2721C27.9455 16.8639 27.9772 16.7278 27.1481 15.9399C26.3803 15.2103 26.3799 15.2143 27.221 14.698C28.2377 14.0739 28.2393 13.9333 27.2389 13.3123C26.3786 12.7785 26.3792 12.7859 27.1503 12.0538C27.9772 11.2678 27.9549 11.165 26.867 10.7489C25.9072 10.3817 25.9041 10.3727 26.4875 9.57207C26.8349 9.09519 26.9211 8.93704 26.9211 8.77363C26.9211 8.48794 26.7929 8.42407 25.9507 8.28801C25.2472 8.17426 25.0923 8.10535 25.0923 7.90519C25.0923 7.86713 25.221 7.56088 25.3782 7.22423C25.6858 6.56513 25.7291 6.3011 25.555 6.1436C25.4614 6.05894 25.3362 6.04669 24.6653 6.05785C23.9636 6.06966 23.8739 6.0596 23.7765 5.96182C23.6702 5.85507 23.6715 5.83997 23.8374 5.14697C24.041 4.29822 24.0419 4.27744 23.8745 4.12016C23.7046 3.96047 23.5985 3.9631 22.8189 4.14663C22.2508 4.28051 22.1567 4.28947 22.0276 4.22035L21.8811 4.1416L21.9215 3.35804L21.9622 2.57491L21.8157 2.42835C21.735 2.34741 21.6208 2.28179 21.5613 2.28179C21.5022 2.28179 21.1491 2.42179 20.7775 2.59263C20.1567 2.87832 20.09 2.89735 19.9556 2.82713C19.8218 2.75713 19.7995 2.68779 19.685 1.98954C19.5531 1.18169 19.4713 1.02441 19.1845 1.02441C19.1165 1.02441 18.7792 1.22676 18.4351 1.47394C17.8699 1.87994 17.7942 1.91844 17.6533 1.86923C17.5367 1.82854 17.4689 1.74016 17.3862 1.51944C17.325 1.35713 17.2075 1.04432 17.125 0.824475C16.9583 0.38085 16.8654 0.281538 16.6158 0.281538C16.4764 0.281538 16.3504 0.381725 15.8983 0.851163C15.1873 1.58944 15.1849 1.58923 14.6623 0.731944C14.4534 0.389381 14.2351 0.083569 14.1771 0.0525065C14.0465 -0.0174935 13.8928 -0.0174935 13.7725 0.052944ZM14.42 2.63376C15.039 3.07432 14.71 4.11032 13.951 4.11032C13.2142 4.11032 12.8432 3.22285 13.3691 2.71907C13.6661 2.43469 14.0916 2.39991 14.42 2.63376ZM13.6419 5.36966C14.0476 5.52388 14.2141 5.43135 15.1407 4.53841L15.8368 3.86685L16.1315 3.90622C17.0557 4.02873 18.8936 4.83591 19.9497 5.58316C20.9201 6.27004 22.2099 7.66873 22.7596 8.63035L22.877 8.83641L22.3564 10.0098C22.0699 10.6551 21.8354 11.2508 21.8354 11.3339C21.8354 11.5259 21.9614 11.8298 22.0825 11.9302C22.1337 11.9728 22.62 12.2069 23.163 12.4504L24.1495 12.8933L24.1884 13.1445C24.2388 13.4715 24.2453 14.2748 24.1998 14.5029L24.1642 14.6814H23.6009C22.9475 14.6814 22.998 14.623 22.9626 15.4243C22.9368 16.0053 22.7963 16.3264 22.477 16.5344C21.957 16.8737 21.0979 16.8123 20.7335 16.4098C20.6777 16.3476 20.569 16.0368 20.4918 15.7185C20.2665 14.7879 19.964 14.266 19.3558 13.7574C19.1638 13.5971 19.0069 13.4472 19.0069 13.4245C19.0069 13.4022 19.218 13.2243 19.4761 13.0301C20.4163 12.3213 20.9571 11.4962 21.0161 10.6792C21.1297 9.12035 19.8878 7.66763 18.0407 7.19666C17.6028 7.0851 17.4157 7.0816 11.998 7.0816C8.92298 7.0816 6.4067 7.06147 6.4067 7.03697C6.4067 6.97944 7.09029 6.31619 7.49279 5.98347C8.59836 5.06954 10.0342 4.35051 11.5215 3.9666L12.0356 3.83316L12.7662 4.57407C13.1685 4.9816 13.5625 5.33969 13.6419 5.36966ZM4.44058 10.1369C4.77723 10.3574 4.91526 10.9113 4.7162 11.2442C4.40886 11.7596 3.62989 11.7812 3.32211 11.2831C2.87455 10.5593 3.73664 9.67554 4.44058 10.1369ZM24.2751 10.1653C25.1558 10.7021 24.4733 12.0232 23.5305 11.606C22.9011 11.3275 22.8808 10.4672 23.4965 10.1535C23.7534 10.0223 24.0485 10.0269 24.2753 10.1651M7.03561 13.4531V16.7388H4.13061L4.01555 16.2389C3.78892 15.2545 3.69355 14.236 3.75064 13.4019L3.79045 12.8159L4.78905 12.3681C5.41555 12.0875 5.81848 11.8733 5.87033 11.7939C6.09739 11.4474 6.07595 11.2 5.75701 10.4961L5.60826 10.1675H7.03517V13.4531M15.3978 10.3101C16.0197 10.472 16.3482 10.8012 16.3491 11.2628C16.3495 11.6018 16.1818 11.814 15.765 12.0022C15.4702 12.1356 15.4234 12.1389 13.5638 12.157L11.6637 12.1754V10.2242H13.366C14.6956 10.2242 15.1405 10.243 15.3978 10.3101ZM14.756 15.0251C15.0644 15.1108 15.4288 15.3786 15.6156 15.6568C15.8121 15.9493 15.9269 16.3297 16.199 17.5897C16.4287 18.655 16.5768 19.0028 16.9909 19.4561C17.5039 20.0174 17.3847 19.9955 19.9471 19.9955C21.1743 19.9955 22.1779 20.0152 22.1779 20.0393C22.1779 20.0823 21.3329 21.0814 21.2964 21.0814C21.2859 21.0814 20.8444 20.9891 20.3155 20.876C18.8216 20.557 18.7678 20.5944 18.425 22.1955L18.2045 23.224L18.0055 23.322C17.6734 23.4861 16.5939 23.8234 16.0345 23.9389C15.1097 24.1292 14.1034 24.1931 13.219 24.1185C11.7112 23.9905 9.71464 23.4056 9.63655 23.0685C9.62014 22.997 9.51951 22.5341 9.41386 22.0395C9.30776 21.5451 9.17892 21.0761 9.12729 20.9974C8.88011 20.6203 8.62023 20.5971 7.47639 20.8499C7.04326 20.9462 6.66526 21.0241 6.63639 21.0241C6.58214 21.0241 5.77823 20.0946 5.77823 20.032C5.77823 20.0123 7.68748 19.9896 10.0211 19.9817L14.2638 19.9673L14.2791 18.4601C14.29 17.3959 14.2751 16.9295 14.2288 16.8742C14.1776 16.812 13.9039 16.7958 12.9139 16.7958H11.6637V14.9671L13.1068 14.9673C13.9 14.9678 14.6424 14.9936 14.756 15.0251ZM8.21839 21.8794C8.89301 22.2906 8.56948 23.3678 7.77148 23.3669C6.95336 23.3669 6.64995 22.2994 7.34711 21.8737C7.57789 21.733 7.98323 21.7359 8.21839 21.8794ZM20.5734 21.9244C20.9041 22.1668 21.0142 22.671 20.8094 23.0073C20.2713 23.8897 18.9255 23.1882 19.3751 22.2593C19.596 21.8033 20.1834 21.6385 20.5734 21.9244Z" fill="#1A2127"/>
</g>
<defs>
<clipPath id="clip0_36_2386">
<rect width="28" height="28" fill="white"/>
</clipPath>
</defs>
</svg>
